<svg xmlns="http://www.w3.org/2000/svg" viewBox="0 0 900 1100"><defs><style>.a{fill:#fff;}</style></defs><path class="a" d="M523.63,230.94c-4.34,6.95-8.67,13.9-11.56,21.68,9.42-10,19.5-19.31,29.49-28.7,29.41-27.67,61.53-51.17,98.71-67.55a362.66,362.66,0,0,1,97.89-27.71,242.73,242.73,0,0,1,56.25-.93c3,.29,4.35-.21,4.29-3.6a45.59,45.59,0,0,1,1-10.88c.75-3.31,0-4.12-3.3-4-17.38.81-34.72,1.93-51.91,4.68a429.61,429.61,0,0,0-82.25,22c-32.58,12.13-63.58,27.34-91.65,48C552.55,197.17,535.67,211.67,523.63,230.94Z"/></svg>