<svg xmlns="http://www.w3.org/2000/svg" viewBox="0 0 900 1100"><defs><style>.a{fill:#fff;}</style></defs><path class="a" d="M199.33,978.67c.24,2-.34,3-2.48,3.16a37.64,37.64,0,0,0-4.34.8c-6.29,1.14-6.17,1.12-6.8-5.39-2.31-24-4.72-48-7.06-72-2.26-23.35-4.43-46.71-6.73-70.06C169.65,812.1,167.25,789,165,766c-2-20.54-3.93-41.1-5.93-61.65-2.56-26-5.25-52-7.8-78-2.29-23.21-4.43-46.44-6.71-69.65-2.55-25.89-5.22-51.76-7.77-77.64-2.29-23.35-4.45-46.71-6.75-70.06-2.26-23.09-4.63-46.16-6.94-69.24-.12-1.2-.17-2.41-.25-3.61-.64-4,.55-5.73,4.87-4.63a19.93,19.93,0,0,0,6.39.61c3.93-.24,5.11,1.48,5.42,5.28,1.56,18.84,3.39,37.66,5.15,56.49s3.53,37.38,5.27,56.08,3.45,37.12,5.17,55.68l6,64.49q3.09,32.45,6.09,64.89,3.5,37.05,6.94,74.1l6,64.5q3.47,36.84,6.91,73.7,2.57,27.86,5.16,55.69,3.06,32.64,6.13,65.28C198.64,971.73,198.91,975.21,199.33,978.67Z"/></svg>