<svg xmlns="http://www.w3.org/2000/svg" viewBox="0 0 900 1100"><defs><style>.a{fill:#fff;}</style></defs><polygon class="a" points="375.79 283.68 382.56 275.75 411.21 242.22 435.71 218.85 459.95 195.22 468.15 187.22 473.4 182.1 514.87 136.86 550.87 98.98 565.38 83.91 570.51 80.2 580.26 73.16 593.64 67.89 596.1 67.32 599.67 75.61 601.75 80.7 595.91 82.4 584.41 87.86 574.42 94.84 562.17 104.64 553.13 112.74 541.07 124.8 509.02 159.67 490.19 180.4 472.08 198.3 435.52 231.1 406.88 255.03 393.69 267.28 383.13 277.65 377.86 283.49 377.49 288.2 374.46 292.35 375.79 283.68"/></svg>